STARTFONT 2.1
FONT -MIT-30VRB KST-Medium-R-Normal--30-10-200-200-P-15-ISO8859-1
SIZE 10 200 200
FONTBOUNDINGBOX 27 30 -1 -8
STARTPROPERTIES 17
ADD_STYLE_NAME ""
AVERAGE_WIDTH 15
CHARSET_ENCODING "1"
CHARSET_REGISTRY "ISO8859"
DEFAULT_CHAR 0
FAMILY "30VRB KST"
FONT_ASCENT 22
FONT_DESCENT 8
FOUNDRY "MIT"
PIXEL_SIZE 30
POINT_SIZE 10
RESOLUTION_X 200
RESOLUTION_Y 200
SETWIDTH_NAME "Normal"
SLANT "R"
SPACING "P"
WEIGHT_NAME "Medium"
ENDPROPERTIES
CHARS 122
STARTCHAR char1
ENCODING 1
SWIDTH 1500 0
DWIDTH 15 0
BBX 13 30 0 -8
BITMAP
0000
0000
0700
0700
0700
0700
0700
0700
0700
0700
0700
0700
0700
0700
0700
C718
E738
7770
3FE0
1FC0
0F80
0700
0000
0000
0000
0000
0000
0000
0000
0000
ENDCHAR
STARTCHAR char2
ENCODING 2
SWIDTH 2200 0
DWIDTH 22 0
BBX 20 30 0 -8
BITMAP
000000
000000
000000
000000
000000
000000
000000
000000
000060
0000E0
0001C0
000380
1E0780
3F0F00
7FDE00
F1FC00
E0F800
E0F000
F1F800
7FDE70
3F8FE0
1E07C0
000000
000000
000000
000000
000000
000000
000000
000000
ENDCHAR
STARTCHAR char3
ENCODING 3
SWIDTH 2000 0
DWIDTH 20 0
BBX 18 30 0 -8
BITMAP
000000
000000
000000
000F00
001F80
003FC0
0079C0
00F1C0
00E380
01C780
01C700
038E00
039C00
071E00
071F00
0E0F80
0E0780
1C0380
1DC780
39FF80
39FF00
30FE00
700000
700000
600000
600000
E00000
000000
000000
000000
ENDCHAR
STARTCHAR char4
ENCODING 4
SWIDTH 1700 0
DWIDTH 17 0
BBX 15 30 0 -8
BITMAP
0000
0000
0000
0000
0000
0000
0000
0100
0380
07C0
07C0
0EE0
0EE0
1C70
1C70
3838
3838
701C
701C
E00E
E00E
0000
0000
0000
0000
0000
0000
0000
0000
0000
ENDCHAR
STARTCHAR char5
ENCODING 5
SWIDTH 2000 0
DWIDTH 20 0
BBX 17 30 0 -8
BITMAP
000000
000000
000000
000000
000000
000000
000000
000000
000000
000000
000000
000000
000000
000000
FFFF80
FFFF80
FFFF80
000000
000000
000000
000000
000000
000000
000000
000000
000000
000000
000000
000000
000000
ENDCHAR
STARTCHAR char6
ENCODING 6
SWIDTH 1200 0
DWIDTH 12 0
BBX 9 30 0 -8
BITMAP
0000
0000
0000
0000
0000
0380
0780
0E00
1C00
3800
7000
7000
FF80
FF80
F000
7000
7800
3C00
1E00
0F80
0380
0000
0000
0000
0000
0000
0000
0000
0000
0000
ENDCHAR
STARTCHAR char7
ENCODING 7
SWIDTH 1600 0
DWIDTH 16 0
BBX 14 30 0 -8
BITMAP
0000
0000
0000
0000
0000
0000
0000
0000
0000
FFC0
FFF8
FFFC
38E0
38E0
38E0
38E0
38E0
38E0
38E0
38E0
F8E0
F8FC
007C
0000
0000
0000
0000
0000
0000
0000
ENDCHAR
STARTCHAR char8
ENCODING 8
SWIDTH 1500 0
DWIDTH 15 0
BBX 13 30 0 -8
BITMAP
0000
0000
0000
0000
C000
F000
7800
7800
1C00
0C00
0E00
0600
0600
0F00
1F00
3B80
3380
71C0
E1C0
E0E0
C078
0038
0000
0000
0000
0000
0000
0000
0000
0000
ENDCHAR
STARTCHAR char11
ENCODING 11
SWIDTH 1300 0
DWIDTH 13 0
BBX 11 30 0 -8
BITMAP
0000
0000
0000
0E00
1F00
3F80
7FC0
EEE0
CE60
0E00
0E00
0E00
0E00
0E00
0E00
0E00
0E00
0E00
0E00
0E00
0E00
0E00
0000
0000
0000
0000
0000
0000
0000
0000
ENDCHAR
STARTCHAR char14
ENCODING 14
SWIDTH 2500 0
DWIDTH 25 0
BBX 22 30 0 -8
BITMAP
000000
000000
0F8F98
1DFCF8
38F878
38F878
787878
787878
787878
FFFFF8
FFFFF8
787878
787878
787878
787878
787878
787878
787878
787878
787878
787878
FCFCFC
000000
000000
000000
000000
000000
000000
000000
000000
ENDCHAR
STARTCHAR char15
ENCODING 15
SWIDTH 1500 0
DWIDTH 15 0
BBX 13 30 0 -8
BITMAP
0000
0000
1C00
1E00
0F00
0780
03C0
01E0
00F0
0070
0078
1F38
3FF8
7FF8
7078
E038
E038
E038
7078
7FF0
3FE0
1FC0
0000
0000
0000
0000
0000
0000
0000
0000
ENDCHAR
STARTCHAR char16
ENCODING 16
SWIDTH 1800 0
DWIDTH 18 0
BBX 15 30 1 -8
BITMAP
0000
0000
0000
0000
0000
0000
0000
0000
1FFE
3FFE
7FFE
F000
E000
E000
E000
F000
7FFE
3FFE
1FFE
0000
0000
0000
0000
0000
0000
0000
0000
0000
0000
0000
ENDCHAR
STARTCHAR char17
ENCODING 17
SWIDTH 1800 0
DWIDTH 18 0
BBX 15 30 1 -8
BITMAP
0000
0000
0000
0000
0000
0000
0000
0000
FFF0
FFF8
FFFC
001E
000E
000E
000E
001E
FFFC
FFF8
FFF0
0000
0000
0000
0000
0000
0000
0000
0000
0000
0000
0000
ENDCHAR
STARTCHAR char18
ENCODING 18
SWIDTH 1500 0
DWIDTH 15 0
BBX 12 30 1 -8
BITMAP
0000
0000
0000
1F80
3FC0
7FE0
F9F0
F0F0
E070
E070
E070
E070
E070
E070
E070
E070
E070
E070
E070
E070
E070
E070
0000
0000
0000
0000
0000
0000
0000
0000
ENDCHAR
STARTCHAR char19
ENCODING 19
SWIDTH 1500 0
DWIDTH 15 0
BBX 12 30 1 -8
BITMAP
0000
0000
0000
E070
E070
E070
E070
E070
E070
E070
E070
E070
E070
E070
E070
E070
E070
F0F0
F9F0
7FE0
3FC0
1F80
0000
0000
0000
0000
0000
0000
0000
0000
ENDCHAR
STARTCHAR char20
ENCODING 20
SWIDTH 1700 0
DWIDTH 17 0
BBX 15 30 0 -8
BITMAP
0000
0000
0000
E00E
E00E
701C
701C
3018
3FF8
3FF8
1830
1830
1C70
0C60
0C60
0EE0
06C0
06C0
07C0
0380
0380
0100
0000
0000
0000
0000
0000
0000
0000
0000
ENDCHAR
STARTCHAR char21
ENCODING 21
SWIDTH 1500 0
DWIDTH 15 0
BBX 13 30 0 -8
BITMAP
0000
0000
0000
FFF8
FFF8
FFF8
0038
0038
0038
0038
0038
03F8
03F8
03F8
0038
0038
0038
0038
0038
FFF8
FFF8
FFF8
0000
0000
0000
0000
0000
0000
0000
0000
ENDCHAR
STARTCHAR char22
ENCODING 22
SWIDTH 1800 0
DWIDTH 18 0
BBX 16 30 0 -8
BITMAP
0000
0000
0000
0000
0000
0000
0FF0
1FF8
3C3C
781E
FC3F
EE77
C7E3
C3C3
C3C3
C7E3
EE77
FC3F
781E
3C3C
1FF8
0FF0
0000
0000
0000
0000
0000
0000
0000
0000
ENDCHAR
STARTCHAR char23
ENCODING 23
SWIDTH 1700 0
DWIDTH 17 0
BBX 15 30 0 -8
BITMAP
0000
0000
0000
0000
0000
0000
0000
0000
0000
0C60
1C70
3838
701C
FFFE
FFFE
FFFE
701C
3838
1C70
0C60
0000
0000
0000
0000
0000
0000
0000
0000
0000
0000
ENDCHAR
STARTCHAR char24
ENCODING 24
SWIDTH 1800 0
DWIDTH 18 0
BBX 15 30 0 -8
BITMAP
0000
0000
0000
0000
0000
0000
0000
0C00
1C00
3800
7000
FFFE
FFFE
FFFE
7000
3800
1C00
0C00
0000
0000
0000
0000
0000
0000
0000
0000
0000
0000
0000
0000
ENDCHAR
STARTCHAR char25
ENCODING 25
SWIDTH 2200 0
DWIDTH 22 0
BBX 20 30 0 -8
BITMAP
000000
000000
000000
000000
000000
000000
000000
000600
000700
000380
0001C0
0000E0
FFFFF0
FFFFF0
FFFFF0
0000E0
0001C0
000380
000700
000600
000000
000000
000000
000000
000000
000000
000000
000000
000000
000000
ENDCHAR
STARTCHAR char26
ENCODING 26
SWIDTH 2500 0
DWIDTH 25 0
BBX 22 30 0 -8
BITMAP
000000
000000
0F8FC0
1DFFF0
38F8F0
38F870
787800
787800
787800
FFFFF8
FFFFF8
787878
787878
787878
787878
787878
787878
787878
787878
787878
787878
FCFCFC
000000
000000
000000
000000
000000
000000
000000
000000
ENDCHAR
STARTCHAR char27
ENCODING 27
SWIDTH 1600 0
DWIDTH 16 0
BBX 14 30 0 -8
BITMAP
0000
0000
0000
0000
0000
0000
0000
0000
0000
0000
1C0C
3E0C
7F1C
7FB8
F7F8
E3F0
C1E0
0000
0000
0000
0000
0000
0000
0000
0000
0000
0000
0000
0000
0000
ENDCHAR
STARTCHAR char28
ENCODING 28
SWIDTH 1200 0
DWIDTH 12 0
BBX 10 30 0 -8
BITMAP
0000
0000
0000
00C0
01C0
03C0
0780
0F00
1E00
3C00
7800
F000
7800
3C00
1E00
0F00
0780
03C0
01C0
00C0
0000
0000
FFC0
FFC0
FFC0
0000
0000
0000
0000
0000
ENDCHAR
STARTCHAR char29
ENCODING 29
SWIDTH 2100 0
DWIDTH 21 0
BBX 18 30 0 -8
BITMAP
000000
000000
078F80
1DDDC0
39F9C0
38F8C0
787800
787800
787800
FFFF00
FFFF00
787800
787800
787800
787800
787800
787800
787800
787800
787800
787800
FEFE00
000000
000000
000000
000000
000000
000000
000000
000000
ENDCHAR
STARTCHAR char30
ENCODING 30
SWIDTH 1700 0
DWIDTH 17 0
BBX 14 30 0 -8
BITMAP
0000
0000
0FC0
1FF0
38F0
3870
7800
7800
7800
FFF8
FFF8
7878
7878
7878
7878
7878
7878
7878
7878
7878
7878
FCFC
0000
0000
0000
0000
0000
0000
0000
0000
ENDCHAR
STARTCHAR char31
ENCODING 31
SWIDTH 1800 0
DWIDTH 18 0
BBX 15 30 0 -8
BITMAP
0000
0000
0F98
1EF8
3C78
3878
3878
3878
3838
FFF8
FFF8
3838
3838
3838
3838
3838
3838
3838
3838
3838
783C
FCFE
0000
0000
0000
0000
0000
0000
0000
0000
ENDCHAR
STARTCHAR char32
ENCODING 32
SWIDTH 1000 0
DWIDTH 10 0
BBX 1 30 0 -8
BITMAP
00
00
00
00
00
00
00
00
00
00
00
00
00
00
00
00
00
00
00
00
00
00
00
00
00
00
00
00
00
00
ENDCHAR
STARTCHAR char33
ENCODING 33
SWIDTH 600 0
DWIDTH 6 0
BBX 4 30 0 -8
BITMAP
00
00
60
F0
F0
F0
F0
F0
F0
60
60
60
60
60
60
00
00
60
F0
F0
F0
60
00
00
00
00
00
00
00
00
ENDCHAR
STARTCHAR char34
ENCODING 34
SWIDTH 1100 0
DWIDTH 11 0
BBX 8 30 1 -8
BITMAP
E7
E7
E7
E7
E7
E7
42
00
00
00
00
00
00
00
00
00
00
00
00
00
00
00
00
00
00
00
00
00
00
00
ENDCHAR
STARTCHAR char35
ENCODING 35
SWIDTH 1400 0
DWIDTH 14 0
BBX 12 30 0 -8
BITMAP
0000
0000
0000
0000
0000
0000
39C0
39C0
39C0
FFF0
FFF0
FFF0
39C0
39C0
FFF0
FFF0
FFF0
39C0
39C0
0000
0000
0000
0000
0000
0000
0000
0000
0000
0000
0000
ENDCHAR
STARTCHAR char36
ENCODING 36
SWIDTH 1400 0
DWIDTH 14 0
BBX 12 30 0 -8
BITMAP
0600
0600
1FC0
3FE0
6670
E670
E670
E630
F600
FE00
7E00
7F80
1FC0
0FE0
07F0
06F0
0670
C670
C670
E6F0
FFE0
7FC0
0600
0600
0000
0000
0000
0000
0000
0000
ENDCHAR
STARTCHAR char37
ENCODING 37
SWIDTH 1500 0
DWIDTH 15 0
BBX 13 30 0 -8
BITMAP
0000
0000
0000
03F8
07F0
7E70
FCE0
D8E0
F9C0
71C0
0380
0380
0700
0700
0E00
0E00
1C00
1C70
38F8
38D8
30F8
3070
0000
0000
0000
0000
0000
0000
0000
0000
ENDCHAR
STARTCHAR char38
ENCODING 38
SWIDTH 2300 0
DWIDTH 23 0
BBX 20 30 0 -8
BITMAP
000000
000000
07C000
0EE000
0C7000
1C7000
1C7000
1C7000
1E6000
1EE000
0FC1F0
0F83F0
1FC670
33E670
63EC00
E1FC00
E0F800
F07C00
F0FE10
FFBFB0
7F1FF0
180780
000000
000000
000000
000000
000000
000000
000000
000000
ENDCHAR
STARTCHAR char39
ENCODING 39
SWIDTH 600 0
DWIDTH 6 0
BBX 4 30 0 -8
BITMAP
60
F0
F0
70
30
30
60
C0
00
00
00
00
00
00
00
00
00
00
00
00
00
00
00
00
00
00
00
00
00
00
ENDCHAR
STARTCHAR char40
ENCODING 40
SWIDTH 900 0
DWIDTH 9 0
BBX 8 30 0 -8
BITMAP
03
06
0C
0C
18
18
30
70
70
70
60
E0
E0
E0
E0
E0
E0
60
60
70
30
30
18
18
0C
06
00
00
00
00
ENDCHAR
STARTCHAR char41
ENCODING 41
SWIDTH 800 0
DWIDTH 8 0
BBX 6 30 0 -8
BITMAP
C0
C0
60
60
30
30
38
38
18
1C
1C
1C
1C
1C
1C
1C
1C
1C
1C
18
18
30
30
60
60
C0
00
00
00
00
ENDCHAR
STARTCHAR char42
ENCODING 42
SWIDTH 1200 0
DWIDTH 12 0
BBX 10 30 0 -8
BITMAP
0000
0000
0000
0000
0000
0000
0000
0000
0C00
0C00
0C00
CCC0
EDC0
E1C0
3A00
0C00
7380
E1C0
CCC0
0C00
0C00
0C00
0000
0000
0000
0000
0000
0000
0000
0000
ENDCHAR
STARTCHAR char43
ENCODING 43
SWIDTH 1300 0
DWIDTH 13 0
BBX 10 30 1 -8
BITMAP
0000
0000
0000
0000
0000
0000
0000
0000
0000
0000
0C00
0C00
0C00
0C00
FFC0
FFC0
0C00
0C00
0C00
0C00
0000
0000
0000
0000
0000
0000
0000
0000
0000
0000
ENDCHAR
STARTCHAR char44
ENCODING 44
SWIDTH 600 0
DWIDTH 6 0
BBX 4 30 0 -8
BITMAP
00
00
00
00
00
00
00
00
00
00
00
00
00
00
00
00
00
00
60
F0
F0
70
30
60
C0
00
00
00
00
00
ENDCHAR
STARTCHAR char45
ENCODING 45
SWIDTH 900 0
DWIDTH 9 0
BBX 7 30 0 -8
BITMAP
00
00
00
00
00
00
00
00
00
00
00
00
00
00
FE
FE
FE
00
00
00
00
00
00
00
00
00
00
00
00
00
ENDCHAR
STARTCHAR char46
ENCODING 46
SWIDTH 700 0
DWIDTH 7 0
BBX 4 30 0 -8
BITMAP
00
00
00
00
00
00
00
00
00
00
00
00
00
00
00
00
00
00
60
F0
F0
60
00
00
00
00
00
00
00
00
ENDCHAR
STARTCHAR char47
ENCODING 47
SWIDTH 1000 0
DWIDTH 10 0
BBX 8 30 0 -8
BITMAP
00
00
03
03
07
06
06
06
0C
0C
0C
0C
18
18
18
30
30
30
70
60
60
E0
C0
C0
C0
00
00
00
00
00
ENDCHAR
STARTCHAR char48
ENCODING 48
SWIDTH 1400 0
DWIDTH 14 0
BBX 12 30 0 -8
BITMAP
0000
0000
0F00
1F80
39C0
70E0
70E0
F0F0
F0F0
F0F0
F0F0
F0F0
F0F0
F0F0
F0F0
F0F0
F0F0
70E0
70E0
39C0
3F80
0F00
0000
0000
0000
0000
0000
0000
0000
0000
ENDCHAR
STARTCHAR char49
ENCODING 49
SWIDTH 1200 0
DWIDTH 12 0
BBX 10 30 0 -8
BITMAP
0000
0000
0600
1E00
7E00
1E00
1E00
1E00
1E00
1E00
1E00
1E00
1E00
1E00
1E00
1E00
1E00
1E00
1E00
1E00
3F00
FFC0
0000
0000
0000
0000
0000
0000
0000
0000
ENDCHAR
STARTCHAR char50
ENCODING 50
SWIDTH 1400 0
DWIDTH 14 0
BBX 12 30 0 -8
BITMAP
0000
0000
0E00
3F80
63C0
C1E0
C1E0
C1F0
E1F0
E1F0
71E0
01E0
03C0
03C0
0700
0E00
0C00
1800
3000
6000
FFE0
FFE0
0060
0060
0000
0000
0000
0000
0000
0000
ENDCHAR
STARTCHAR char51
ENCODING 51
SWIDTH 1400 0
DWIDTH 14 0
BBX 12 30 0 -8
BITMAP
0000
0000
1F00
3FC0
73C0
61E0
E1E0
F9E0
79C0
33C0
0300
0600
1FC0
31E0
31E0
01F0
01F0
01E0
C1E0
E3C0
FF80
7E00
0000
0000
0000
0000
0000
0000
0000
0000
ENDCHAR
STARTCHAR char52
ENCODING 52
SWIDTH 1600 0
DWIDTH 16 0
BBX 14 30 0 -8
BITMAP
0000
0000
0030
0070
00F0
01F0
03F0
06F0
06F0
0CF0
18F0
18F0
30F0
60F0
FFFC
FFFC
00F0
00F0
00F0
00F0
01F0
07FC
0000
0000
0000
0000
0000
0000
0000
0000
ENDCHAR
STARTCHAR char53
ENCODING 53
SWIDTH 1500 0
DWIDTH 15 0
BBX 13 30 0 -8
BITMAP
0000
0000
3030
3870
3FE0
3FE0
3F80
3000
3000
3000
3380
3FE0
39F0
30F0
30F8
00F8
00F8
00F0
60F0
F1E0
7FC0
3F00
0000
0000
0000
0000
0000
0000
0000
0000
ENDCHAR
STARTCHAR char54
ENCODING 54
SWIDTH 1400 0
DWIDTH 14 0
BBX 12 30 0 -8
BITMAP
0000
0000
07C0
1FE0
3870
3870
7060
7000
F000
F000
F780
FFE0
F8E0
F0F0
F0F0
F0F0
F0F0
F0F0
70F0
78E0
3FC0
1F80
0000
0000
0000
0000
0000
0000
0000
0000
ENDCHAR
STARTCHAR char55
ENCODING 55
SWIDTH 1400 0
DWIDTH 14 0
BBX 12 30 0 -8
BITMAP
6000
6000
7FF0
FFF0
FFE0
C060
8060
80C0
00C0
0180
0380
0300
0700
0700
0E00
0E00
1E00
1E00
1E00
3E00
1C00
1800
0000
0000
0000
0000
0000
0000
0000
0000
ENDCHAR
STARTCHAR char56
ENCODING 56
SWIDTH 1500 0
DWIDTH 15 0
BBX 13 30 0 -8
BITMAP
0000
0000
0F80
1FE0
3870
7070
7030
7870
7CF0
3FE0
3FC0
1FE0
1FF0
31F0
70F8
6078
E038
E038
6030
7070
3FE0
1F80
0000
0000
0000
0000
0000
0000
0000
0000
ENDCHAR
STARTCHAR char57
ENCODING 57
SWIDTH 1400 0
DWIDTH 14 0
BBX 12 30 0 -8
BITMAP
0000
0000
0F00
3FC0
78E0
70E0
F0F0
F0F0
F0F0
F0F0
F0F0
F0F0
71F0
3FF0
1CF0
00F0
00E0
00E0
61C0
71C0
7F80
3E00
0000
0000
0000
0000
0000
0000
0000
0000
ENDCHAR
STARTCHAR char58
ENCODING 58
SWIDTH 700 0
DWIDTH 7 0
BBX 5 30 0 -8
BITMAP
00
00
00
00
00
00
00
00
70
F8
F8
70
60
00
00
00
20
70
F8
F8
70
00
00
00
00
00
00
00
00
00
ENDCHAR
STARTCHAR char59
ENCODING 59
SWIDTH 600 0
DWIDTH 6 0
BBX 4 30 0 -8
BITMAP
00
00
00
00
00
00
00
60
F0
F0
F0
F0
60
00
00
00
60
F0
F0
F0
F0
10
30
20
C0
80
00
00
00
00
ENDCHAR
STARTCHAR char60
ENCODING 60
SWIDTH 1200 0
DWIDTH 12 0
BBX 10 30 0 -8
BITMAP
0000
0000
0000
0000
0000
00C0
01C0
0380
0700
0E00
1C00
3800
7000
E000
7000
3800
1C00
0E00
0700
0380
01C0
00C0
0000
0000
0000
0000
0000
0000
0000
0000
ENDCHAR
STARTCHAR char61
ENCODING 61
SWIDTH 1200 0
DWIDTH 12 0
BBX 10 30 0 -8
BITMAP
0000
0000
0000
0000
0000
0000
0000
0000
0000
0000
FFC0
FFC0
FFC0
0000
0000
FFC0
FFC0
FFC0
0000
0000
0000
0000
0000
0000
0000
0000
0000
0000
0000
0000
ENDCHAR
STARTCHAR char62
ENCODING 62
SWIDTH 1200 0
DWIDTH 12 0
BBX 10 30 0 -8
BITMAP
0000
0000
0000
0000
0000
C000
E000
7000
3800
1C00
0E00
0700
0380
01C0
0380
0700
0E00
1C00
3800
7000
E000
C000
0000
0000
0000
0000
0000
0000
0000
0000
ENDCHAR
STARTCHAR char63
ENCODING 63
SWIDTH 1000 0
DWIDTH 10 0
BBX 8 30 0 -8
BITMAP
00
00
60
F8
FC
FE
06
03
03
03
3F
3F
7E
7C
60
60
00
00
60
F0
F0
60
00
00
00
00
00
00
00
00
ENDCHAR
STARTCHAR char64
ENCODING 64
SWIDTH 2000 0
DWIDTH 20 0
BBX 17 30 1 -8
BITMAP
000000
000000
000000
000000
000000
000000
000000
0FFC00
3FFE00
7FFF00
600F00
67C780
CFE380
DEF380
DC7380
DC7380
DC7780
DE7F00
DFFF00
CFFE00
E00000
7FFF80
3FFF80
000000
000000
000000
000000
000000
000000
000000
ENDCHAR
STARTCHAR char65
ENCODING 65
SWIDTH 2200 0
DWIDTH 22 0
BBX 19 30 0 -8
BITMAP
000000
000000
006000
00E000
00E000
00F000
01F000
01F000
01F000
037800
037800
067800
063C00
0C3C00
0FFE00
0FFE00
181E00
180F00
300F00
300F00
780FC0
FC3FE0
000000
000000
000000
000000
000000
000000
000000
000000
ENDCHAR
STARTCHAR char66
ENCODING 66
SWIDTH 1900 0
DWIDTH 19 0
BBX 16 30 0 -8
BITMAP
0000
0000
FFE0
7FF8
3C3C
3C3E
3C1E
3C1E
3C1E
3C3E
3C3C
3FF0
3FF8
3C3E
3C1E
3C0F
3C0F
3C0F
3C0F
3C1F
7FFE
FFF8
0000
0000
0000
0000
0000
0000
0000
0000
ENDCHAR
STARTCHAR char67
ENCODING 67
SWIDTH 2100 0
DWIDTH 21 0
BBX 18 30 0 -8
BITMAP
000000
01F800
07FEC0
0F87C0
1F01C0
3E01C0
3C00C0
7C00C0
7C0000
F80000
F80000
F80000
F80000
F80000
F80000
7C0040
7C00C0
3C00C0
3E01C0
1F07C0
0FFEC0
01F8C0
000000
000000
000000
000000
000000
000000
000000
000000
ENDCHAR
STARTCHAR char68
ENCODING 68
SWIDTH 2300 0
DWIDTH 23 0
BBX 20 30 0 -8
BITMAP
000000
000000
FFF000
7FFE00
1E0F00
1E0780
1E07C0
1E03C0
1E03E0
1E03E0
1E01F0
1E01F0
1E01F0
1E01F0
1E01F0
1E03E0
1E03E0
1E03E0
1E03C0
1E0780
3FFF00
FFFC00
000000
000000
000000
000000
000000
000000
000000
000000
ENDCHAR
STARTCHAR char69
ENCODING 69
SWIDTH 1900 0
DWIDTH 19 0
BBX 16 30 0 -8
BITMAP
0000
0000
FFFE
3FFE
1E0E
1E06
1E02
1E02
1E10
1E30
1E30
1FF0
1FF0
1E30
1E30
1E10
1E00
1E01
1E01
1E03
3FFF
FFFF
0000
0000
0000
0000
0000
0000
0000
0000
ENDCHAR
STARTCHAR char70
ENCODING 70
SWIDTH 1800 0
DWIDTH 18 0
BBX 15 30 0 -8
BITMAP
0000
0000
FFFE
7FFE
3E0E
3E06
3E02
3E02
3E10
3E30
3E70
3FF0
3FF0
3E70
3E30
3E10
3E00
3E00
3E00
3E00
7F00
FF80
0000
0000
0000
0000
0000
0000
0000
0000
ENDCHAR
STARTCHAR char71
ENCODING 71
SWIDTH 2200 0
DWIDTH 22 0
BBX 19 30 0 -8
BITMAP
000000
03F000
0FFD00
1E0F00
3C0300
7C0300
780100
F80100
F80000
F00000
F00000
F00000
F00000
F00000
F01FE0
F007C0
F00780
780780
7C0780
3E0F00
1FFE00
07F000
000000
000000
000000
000000
000000
000000
000000
000000
ENDCHAR
STARTCHAR char72
ENCODING 72
SWIDTH 2400 0
DWIDTH 24 0
BBX 21 30 0 -8
BITMAP
000000
000000
FF8FF8
7F07F0
3E03E0
3E03E0
3E03E0
3E03E0
3E03E0
3E03E0
3E03E0
3FFFE0
3FFFE0
3E03E0
3E03E0
3E03E0
3E03E0
3E03E0
3E03E0
3E03E0
7F07F0
FF8FF8
000000
000000
000000
000000
000000
000000
000000
000000
ENDCHAR
STARTCHAR char73
ENCODING 73
SWIDTH 1300 0
DWIDTH 13 0
BBX 11 30 0 -8
BITMAP
0000
0000
FFE0
3F80
1F00
1F00
1F00
1F00
1F00
1F00
1F00
1F00
1F00
1F00
1F00
1F00
1F00
1F00
1F00
1F00
3F80
FFE0
0000
0000
0000
0000
0000
0000
0000
0000
ENDCHAR
STARTCHAR char74
ENCODING 74
SWIDTH 1400 0
DWIDTH 14 0
BBX 12 30 0 -8
BITMAP
0000
0000
0FF0
07E0
03C0
03C0
03C0
03C0
03C0
03C0
03C0
03C0
03C0
03C0
03C0
03C0
03C0
03C0
03C0
03C0
03C0
03C0
03C0
03C0
03C0
83C0
C380
E380
FF00
7E00
ENDCHAR
STARTCHAR char75
ENCODING 75
SWIDTH 2400 0
DWIDTH 24 0
BBX 21 30 0 -8
BITMAP
000000
000000
FFCFF0
7F8FE0
1F0700
1E0600
1E0E00
1E0C00
1E1800
1E1800
1E3000
1E7000
1EF800
1FFC00
1F3C00
1E1E00
1E1F00
1E0F80
1E07C0
1E07C0
3F07E0
FF8FF8
000000
000000
000000
000000
000000
000000
000000
000000
ENDCHAR
STARTCHAR char76
ENCODING 76
SWIDTH 1900 0
DWIDTH 19 0
BBX 16 30 0 -8
BITMAP
0000
0000
FF80
7F00
3E00
3E00
3E00
3E00
3E00
3E00
3E00
3E00
3E00
3E00
3E00
3E00
3E00
3E01
3E01
3E03
7FFF
FFFF
0000
0000
0000
0000
0000
0000
0000
0000
ENDCHAR
STARTCHAR char77
ENCODING 77
SWIDTH 2700 0
DWIDTH 27 0
BBX 24 30 0 -8
BITMAP
000000
000000
FC007F
7E00FE
3E00F8
3F01F8
3F01F8
3F81F8
3783F8
378378
37C378
33C678
33C678
31E678
31EC78
31FC78
30FC78
30F878
307878
307078
7870FE
FE21FF
000000
000000
000000
000000
000000
000000
000000
000000
ENDCHAR
STARTCHAR char78
ENCODING 78
SWIDTH 2300 0
DWIDTH 23 0
BBX 20 30 0 -8
BITMAP
000000
000000
FC03F0
FC01E0
7E00C0
3F00C0
3F00C0
3F80C0
37C0C0
37C0C0
33E0C0
31F0C0
30F8C0
30F8C0
307CC0
303EC0
301FC0
300FC0
300FC0
3007C0
7803C0
FC01C0
000000
000000
000000
000000
000000
000000
000000
000000
ENDCHAR
STARTCHAR char79
ENCODING 79
SWIDTH 2300 0
DWIDTH 23 0
BBX 20 30 0 -8
BITMAP
000000
03F800
0FFE00
1E0F80
3C07C0
3C03C0
7801E0
F801E0
F801F0
F801F0
F000F0
F000F0
F000F0
F000F0
F000F0
F801F0
F801E0
7801E0
3C03C0
1E0780
0FFF00
03FC00
000000
000000
000000
000000
000000
000000
000000
000000
ENDCHAR
STARTCHAR char80
ENCODING 80
SWIDTH 2000 0
DWIDTH 20 0
BBX 17 30 0 -8
BITMAP
000000
000000
FFF000
3FFE00
1E1F00
1E0F00
1E0F80
1E0F80
1E0F80
1E0F00
1E1F00
1FFE00
1FFC00
1E0000
1E0000
1E0000
1E0000
1E0000
1E0000
1E0000
3F0000
7F8000
000000
000000
000000
000000
000000
000000
000000
000000
ENDCHAR
STARTCHAR char81
ENCODING 81
SWIDTH 2400 0
DWIDTH 24 0
BBX 27 30 0 -8
BITMAP
00000000
00780000
03FF0000
07878000
0E03C000
1E01E000
3C01F000
3C01F000
7C00F000
7800F800
7800F800
F800F800
F800F800
F800F800
F800F800
7800F000
7C00F000
7C00E000
3C01E000
1E01C000
0F070000
03FF0000
00780000
00300000
00FFC020
0187F060
0301FFC0
0000FFC0
00003F80
00000E00
ENDCHAR
STARTCHAR char82
ENCODING 82
SWIDTH 2300 0
DWIDTH 23 0
BBX 20 30 0 -8
BITMAP
000000
000000
FFFC00
3FFE00
1E1F00
1E0F80
1E0F80
1E0F80
1E0F80
1E0F80
1E0F00
1E1E00
1FF800
1FF800
1E7C00
1E3E00
1E1E00
1E1F00
1E0F80
1E07C0
3F07E0
7F87F0
000000
000000
000000
000000
000000
000000
000000
000000
ENDCHAR
STARTCHAR char83
ENCODING 83
SWIDTH 1700 0
DWIDTH 17 0
BBX 14 30 0 -8
BITMAP
0000
0F80
1FD8
3C78
3838
7018
7018
7808
7800
7E00
7F80
3FE0
0FF0
03F8
00F8
407C
403C
403C
6038
F078
DFF0
8FC0
0000
0000
0000
0000
0000
0000
0000
0000
ENDCHAR
STARTCHAR char84
ENCODING 84
SWIDTH 2200 0
DWIDTH 22 0
BBX 19 30 0 -8
BITMAP
000000
000000
FFFFE0
FFFFE0
E1F0E0
C1F060
C1F060
C1F060
01F000
01F000
01F000
01F000
01F000
01F000
01F000
01F000
01F000
01F000
01F000
01F000
03F800
0FFE00
000000
000000
000000
000000
000000
000000
000000
000000
ENDCHAR
STARTCHAR char85
ENCODING 85
SWIDTH 2400 0
DWIDTH 24 0
BBX 21 30 0 -8
BITMAP
000000
000000
FFC1F8
7F80F0
1E0060
1E0060
1E0060
1E0060
1E0060
1E0060
1E0060
1E0060
1E0060
1E0060
1E0060
1E0060
1E0060
1E0060
1F00E0
0F81C0
07FF80
00FC00
000000
000000
000000
000000
000000
000000
000000
000000
ENDCHAR
STARTCHAR char86
ENCODING 86
SWIDTH 2300 0
DWIDTH 23 0
BBX 20 30 0 -8
BITMAP
000000
000000
FFC7F0
7FC7F0
1F01E0
1F00C0
1F00C0
0F0180
0F8180
0F8380
078300
078300
07C600
03C600
03CC00
03EC00
01F800
01F800
01F000
00F000
00E000
00E000
000000
000000
000000
000000
000000
000000
000000
000000
ENDCHAR
STARTCHAR char87
ENCODING 87
SWIDTH 3000 0
DWIDTH 30 0
BBX 27 30 0 -8
BITMAP
00000000
00000000
FF830FE0
7F070FE0
3E070380
1E0F8180
1E0F8300
1F0F8300
0F1FC300
0F1FC600
0F1BC600
079BE600
07B1EC00
07B1EC00
07F1EC00
03F1F800
03E0F800
03E0F800
01E0F000
01C07000
01C06000
00C06000
00000000
00000000
00000000
00000000
00000000
00000000
00000000
00000000
ENDCHAR
STARTCHAR char88
ENCODING 88
SWIDTH 2300 0
DWIDTH 23 0
BBX 20 30 0 -8
BITMAP
000000
000000
FF9FE0
7E0780
3E0700
3E0600
1F0600
0F8C00
0F9800
07D800
03F000
03E000
01F000
01F800
01F800
037C00
063E00
0C1E00
181F00
380F80
780FC0
FE3FF0
000000
000000
000000
000000
000000
000000
000000
000000
ENDCHAR
STARTCHAR char89
ENCODING 89
SWIDTH 2200 0
DWIDTH 22 0
BBX 19 30 0 -8
BITMAP
000000
000000
FF87E0
7E03C0
3E0180
1E0300
1F0300
0F0600
0F8600
078C00
07CC00
03D800
03F000
01E000
01E000
01E000
01E000
01E000
01E000
01E000
03F000
0FFC00
000000
000000
000000
000000
000000
000000
000000
000000
ENDCHAR
STARTCHAR char90
ENCODING 90
SWIDTH 1900 0
DWIDTH 19 0
BBX 16 30 0 -8
BITMAP
0000
0000
7FFF
7FFF
703E
603E
607C
607C
00F8
01F0
01F0
03E0
03E0
07C0
0780
0F80
1F00
1E03
3E03
7C07
7FFE
FFFE
0000
0000
0000
0000
0000
0000
0000
0000
ENDCHAR
STARTCHAR char91
ENCODING 91
SWIDTH 1000 0
DWIDTH 10 0
BBX 7 30 1 -8
BITMAP
00
00
FE
FE
FE
F0
E0
E0
E0
E0
E0
E0
E0
E0
E0
E0
E0
E0
E0
E0
E0
E0
E0
F0
FE
FE
FE
00
00
00
ENDCHAR
STARTCHAR char92
ENCODING 92
SWIDTH 1400 0
DWIDTH 14 0
BBX 11 30 1 -8
BITMAP
0000
0000
E000
F000
7000
7000
7800
3800
3800
3C00
1C00
1C00
1E00
0E00
0E00
0F00
0700
0700
0780
0380
0380
03C0
01C0
01C0
01E0
00E0
00E0
0000
0000
0000
ENDCHAR
STARTCHAR char93
ENCODING 93
SWIDTH 1000 0
DWIDTH 10 0
BBX 7 30 1 -8
BITMAP
00
00
FE
FE
FE
1E
0E
0E
0E
0E
0E
0E
0E
0E
0E
0E
0E
0E
0E
0E
0E
0E
0E
1E
FE
FE
FE
00
00
00
ENDCHAR
STARTCHAR char94
ENCODING 94
SWIDTH 1900 0
DWIDTH 19 0
BBX 17 30 0 -8
BITMAP
008000
01C000
03E000
07F000
0F7800
1E3C00
3C1E00
780F00
F00780
000000
000000
000000
000000
000000
000000
000000
000000
000000
000000
000000
000000
000000
000000
000000
000000
000000
000000
000000
000000
000000
ENDCHAR
STARTCHAR char95
ENCODING 95
SWIDTH 1800 0
DWIDTH 18 0
BBX 15 30 0 -8
BITMAP
0000
0000
0000
0000
0000
0000
0000
0000
0000
0000
0000
0000
0000
0000
0000
0000
0000
0000
0000
0000
0000
0000
FFFE
0000
0000
0000
0000
0000
0000
0000
ENDCHAR
STARTCHAR char96
ENCODING 96
SWIDTH 600 0
DWIDTH 6 0
BBX 4 30 0 -8
BITMAP
30
60
C0
C0
E0
F0
F0
60
00
00
00
00
00
00
00
00
00
00
00
00
00
00
00
00
00
00
00
00
00
00
ENDCHAR
STARTCHAR char97
ENCODING 97
SWIDTH 1500 0
DWIDTH 15 0
BBX 13 30 0 -8
BITMAP
0000
0000
0000
0000
0000
0000
0000
0000
0F80
3FC0
79E0
71E0
71E0
01E0
07E0
1FE0
79E0
71E0
F1E0
F3E0
FFF8
7CF0
0000
0000
0000
0000
0000
0000
0000
0000
ENDCHAR
STARTCHAR char98
ENCODING 98
SWIDTH 1700 0
DWIDTH 17 0
BBX 14 30 0 -8
BITMAP
0000
0000
F800
F800
7800
7800
7800
7800
79C0
7FF0
7E78
7C3C
783C
783C
783C
783C
783C
783C
783C
7C78
7FF8
67E0
0000
0000
0000
0000
0000
0000
0000
0000
ENDCHAR
STARTCHAR char99
ENCODING 99
SWIDTH 1400 0
DWIDTH 14 0
BBX 12 30 0 -8
BITMAP
0000
0000
0000
0000
0000
0000
0000
0000
0380
0FC0
3CE0
7870
F070
F000
F000
F000
F000
F000
7830
7C70
3FE0
1F80
0000
0000
0000
0000
0000
0000
0000
0000
ENDCHAR
STARTCHAR char100
ENCODING 100
SWIDTH 1600 0
DWIDTH 16 0
BBX 13 30 0 -8
BITMAP
0000
0000
0018
01F8
0078
0078
0078
0078
0E78
3FF8
79F8
F0F8
F078
F078
F078
F078
F078
F078
F078
78F8
7FF8
1F98
0000
0000
0000
0000
0000
0000
0000
0000
ENDCHAR
STARTCHAR char101
ENCODING 101
SWIDTH 1300 0
DWIDTH 13 0
BBX 11 30 0 -8
BITMAP
0000
0000
0000
0000
0000
0000
0000
0000
1F80
3FC0
70E0
F0E0
F0E0
FFE0
FFE0
E000
E000
F000
F000
7860
3FC0
1F80
0000
0000
0000
0000
0000
0000
0000
0000
ENDCHAR
STARTCHAR char102
ENCODING 102
SWIDTH 1400 0
DWIDTH 14 0
BBX 12 30 0 -8
BITMAP
0000
0000
07C0
0FE0
1C70
1C70
3C00
3C00
3C00
FFC0
FFC0
3C00
3C00
3C00
3C00
3C00
3C00
3C00
3C00
3C00
7E00
FF00
0000
0000
0000
0000
0000
0000
0000
0000
ENDCHAR
STARTCHAR char103
ENCODING 103
SWIDTH 1700 0
DWIDTH 17 0
BBX 14 30 0 -8
BITMAP
0000
0000
0000
0000
0000
0000
0000
0000
0E38
3FFC
71DC
E0C0
E0E0
E0E0
E0E0
F1C0
7FC0
3F00
6000
E000
F000
FFC0
7FE0
3FF0
0070
C070
C070
E0E0
7FC0
3F00
ENDCHAR
STARTCHAR char104
ENCODING 104
SWIDTH 1700 0
DWIDTH 17 0
BBX 14 30 0 -8
BITMAP
0000
0000
3800
F800
7800
7800
7800
7800
7800
78E0
7BF0
7E78
7C78
7878
7878
7878
7878
7878
7878
7878
7878
FCFC
0000
0000
0000
0000
0000
0000
0000
0000
ENDCHAR
STARTCHAR char105
ENCODING 105
SWIDTH 1000 0
DWIDTH 10 0
BBX 8 30 0 -8
BITMAP
00
00
18
3C
3C
18
00
00
0C
FC
3C
3C
3C
3C
3C
3C
3C
3C
3C
3C
3C
FF
00
00
00
00
00
00
00
00
ENDCHAR
STARTCHAR char106
ENCODING 106
SWIDTH 1200 0
DWIDTH 12 0
BBX 10 30 0 -8
BITMAP
0000
0000
0300
0780
0780
0300
0000
0000
00C0
0FC0
03C0
03C0
03C0
03C0
03C0
03C0
03C0
03C0
03C0
03C0
03C0
03C0
03C0
03C0
03C0
03C0
E3C0
E3C0
FF80
7E00
ENDCHAR
STARTCHAR char107
ENCODING 107
SWIDTH 1700 0
DWIDTH 17 0
BBX 14 30 0 -8
BITMAP
0000
0000
1C00
7C00
3C00
3C00
3C00
3C00
3C00
3C00
3C78
3C30
3C60
3CC0
3D80
3F80
3F80
3DC0
3CE0
3C70
7C38
FE7C
0000
0000
0000
0000
0000
0000
0000
0000
ENDCHAR
STARTCHAR char108
ENCODING 108
SWIDTH 900 0
DWIDTH 9 0
BBX 7 30 0 -8
BITMAP
00
00
1C
FC
3C
3C
3C
3C
3C
3C
3C
3C
3C
3C
3C
3C
3C
3C
3C
3C
7C
FE
00
00
00
00
00
00
00
00
ENDCHAR
STARTCHAR char109
ENCODING 109
SWIDTH 2600 0
DWIDTH 26 0
BBX 23 30 0 -8
BITMAP
000000
000000
000000
000000
000000
000000
000000
000000
78F0F0
FDFBF8
3E3E3C
3C3C3C
3C3C3C
3C3C3C
3C3C3C
3C3C3C
3C3C3C
3C3C3C
3C3C3C
3C3C3C
3C3C3C
7E7E7E
000000
000000
000000
000000
000000
000000
000000
000000
ENDCHAR
STARTCHAR char110
ENCODING 110
SWIDTH 1800 0
DWIDTH 18 0
BBX 15 30 0 -8
BITMAP
0000
0000
0000
0000
0000
0000
0000
0000
3CF0
FDF8
3E3C
3C3C
3C3C
3C3C
3C3C
3C3C
3C3C
3C3C
3C3C
3C3C
3C3C
FE7E
0000
0000
0000
0000
0000
0000
0000
0000
ENDCHAR
STARTCHAR char111
ENCODING 111
SWIDTH 1500 0
DWIDTH 15 0
BBX 13 30 0 -8
BITMAP
0000
0000
0000
0000
0000
0000
0000
0000
1FC0
3FE0
78F0
F078
F078
F078
F078
F078
F078
F078
7070
78F0
1FC0
0700
0000
0000
0000
0000
0000
0000
0000
0000
ENDCHAR
STARTCHAR char112
ENCODING 112
SWIDTH 1800 0
DWIDTH 18 0
BBX 15 30 0 -8
BITMAP
0000
0000
0000
0000
0000
0000
0000
0000
09E0
FBF0
7E78
7C3C
783C
783C
781E
781E
781C
783C
783C
7C78
7FF0
7BE0
7800
7800
7800
7800
7800
7C00
FE00
0000
ENDCHAR
STARTCHAR char113
ENCODING 113
SWIDTH 1700 0
DWIDTH 17 0
BBX 14 30 0 -8
BITMAP
0000
0000
0000
0000
0000
0000
0000
0000
0F30
3FB0
79F0
70F0
F070
F070
F070
F070
F070
F070
F070
70F0
79F0
1F70
0070
0070
0070
0070
0070
00F8
01FC
0000
ENDCHAR
STARTCHAR char114
ENCODING 114
SWIDTH 1200 0
DWIDTH 12 0
BBX 10 30 0 -8
BITMAP
0000
0000
0000
0000
0000
0000
0000
0000
1980
FBC0
7FC0
7CC0
7800
7800
7800
7800
7800
7800
7800
7800
7800
FC00
0000
0000
0000
0000
0000
0000
0000
0000
ENDCHAR
STARTCHAR char115
ENCODING 115
SWIDTH 1200 0
DWIDTH 12 0
BBX 10 30 0 -8
BITMAP
0000
0000
0000
0000
0000
0000
0000
0000
1E80
3F80
7080
7000
7800
7E00
3F80
1F80
07C0
81C0
C1C0
E380
BF00
9E00
0000
0000
0000
0000
0000
0000
0000
0000
ENDCHAR
STARTCHAR char116
ENCODING 116
SWIDTH 1100 0
DWIDTH 11 0
BBX 9 30 0 -8
BITMAP
0000
0000
0000
0000
0800
0800
1800
3800
FF00
FF00
3800
3800
3800
3800
3800
3800
3800
3800
3800
3800
3D80
1F00
0000
0000
0000
0000
0000
0000
0000
0000
ENDCHAR
STARTCHAR char117
ENCODING 117
SWIDTH 1700 0
DWIDTH 17 0
BBX 14 30 0 -8
BITMAP
0000
0000
0000
0000
0000
0000
0000
0000
F8F8
7878
7878
7878
7878
7878
7878
7878
7878
7878
78F8
79F8
3F7C
1E3C
0000
0000
0000
0000
0000
0000
0000
0000
ENDCHAR
STARTCHAR char118
ENCODING 118
SWIDTH 1700 0
DWIDTH 17 0
BBX 14 30 0 -8
BITMAP
0000
0000
0000
0000
0000
0000
0000
0000
FE7C
7878
7830
3C30
3C60
1C60
1EC0
1EC0
1F80
0F80
0F00
0F00
0600
0600
0000
0000
0000
0000
0000
0000
0000
0000
ENDCHAR
STARTCHAR char119
ENCODING 119
SWIDTH 2200 0
DWIDTH 22 0
BBX 19 30 0 -8
BITMAP
000000
000000
000000
000000
000000
000000
000000
000000
FE21E0
7860C0
7870C0
7870C0
38F180
3CF980
3CF980
1DBB00
1F3F00
1F3F00
0F1E00
0F1E00
0E1C00
060C00
000000
000000
000000
000000
000000
000000
000000
000000
ENDCHAR
STARTCHAR char120
ENCODING 120
SWIDTH 1800 0
DWIDTH 18 0
BBX 15 30 0 -8
BITMAP
0000
0000
0000
0000
0000
0000
0000
0000
FE3E
7C1C
3E18
1F30
0FE0
07E0
07C0
03E0
07F0
0CF0
1878
3078
707C
F8FE
0000
0000
0000
0000
0000
0000
0000
0000
ENDCHAR
STARTCHAR char121
ENCODING 121
SWIDTH 1700 0
DWIDTH 17 0
BBX 14 30 0 -8
BITMAP
0000
0000
0000
0000
0000
0000
0000
0000
FE7C
7C38
3C30
3C30
1C30
1E60
1E60
0E60
0EC0
07C0
0780
0780
0300
0300
0300
0600
0600
0600
8C00
DC00
F800
7000
ENDCHAR
STARTCHAR char122
ENCODING 122
SWIDTH 1300 0
DWIDTH 13 0
BBX 10 30 0 -8
BITMAP
0000
0000
0000
0000
0000
0000
0000
0000
FFC0
FFC0
C780
8780
8F00
0F00
1E00
3E00
3C00
7C40
7840
F0C0
FFC0
FFC0
0000
0000
0000
0000
0000
0000
0000
0000
ENDCHAR
STARTCHAR char123
ENCODING 123
SWIDTH 1100 0
DWIDTH 11 0
BBX 8 30 1 -8
BITMAP
00
00
0F
1E
38
38
38
3C
1C
1C
1C
18
30
70
F0
70
30
18
1C
1C
1C
3C
38
38
38
1E
0F
00
00
00
ENDCHAR
STARTCHAR char124
ENCODING 124
SWIDTH 600 0
DWIDTH 6 0
BBX 3 30 1 -8
BITMAP
00
00
E0
E0
E0
E0
E0
E0
E0
E0
E0
E0
E0
E0
E0
E0
E0
E0
E0
E0
E0
E0
E0
E0
E0
E0
E0
00
00
00
ENDCHAR
STARTCHAR char125
ENCODING 125
SWIDTH 1100 0
DWIDTH 11 0
BBX 8 30 1 -8
BITMAP
00
00
F0
78
1C
1C
1C
3C
38
38
38
18
0C
0E
0F
0E
0C
18
38
38
38
3C
1C
1C
1C
78
F0
00
00
00
ENDCHAR
STARTCHAR char126
ENCODING 126
SWIDTH 1600 0
DWIDTH 16 0
BBX 14 30 0 -8
BITMAP
0000
0000
0000
0000
0000
0000
0000
0000
0000
0000
1C0C
3E0C
7F1C
7FB8
F7F8
E3F0
C1E0
0000
0000
0000
0000
0000
0000
0000
0000
0000
0000
0000
0000
0000
ENDCHAR
ENDFONT
